<?xml version="1.0" encoding="utf-8"?>
<!-- Generator: Adobe Illustrator 24.1.0, SVG Export Plug-In . SVG Version: 6.00 Build 0)  -->
<svg version="1.1" id="Layer_1" xmlns="http://www.w3.org/2000/svg" xmlns:xlink="http://www.w3.org/1999/xlink" x="0px" y="0px"
	 viewBox="0 0 18 18" style="enable-background:new 0 0 18 18;" xml:space="preserve">
<style type="text/css">
	.st0{fill:#FFFFFF;stroke:#FFFFFF;stroke-width:3.417675e-02;stroke-miterlimit:6.25;}
</style>
<g id="SVGRepo_bgCarrier">
</g>
<g id="SVGRepo_tracerCarrier">
</g>
<g id="SVGRepo_iconCarrier">
	<g>
		<path class="st0" d="M9,0.3c-4.8,0-8.7,3.9-8.7,8.7s3.9,8.7,8.7,8.7s8.7-3.9,8.7-8.7S13.8,0.3,9,0.3z M14.5,14.5
			c-0.7,0.7-1.5,1.3-2.5,1.7c-1,0.4-2,0.6-3,0.6c-1,0-2.1-0.2-3-0.6c-0.9-0.4-1.7-0.9-2.5-1.7c-0.7-0.7-1.3-1.5-1.7-2.5
			c-0.4-1-0.6-2-0.6-3s0.2-2.1,0.6-3c0.4-0.9,0.9-1.7,1.7-2.5C4.2,2.9,5.1,2.3,6,1.9c1-0.4,2-0.6,3-0.6s2.1,0.2,3,0.6
			c0.9,0.4,1.7,0.9,2.5,1.7c0.7,0.7,1.3,1.5,1.7,2.5c0.4,1,0.6,2,0.6,3c0,1-0.2,2.1-0.6,3C15.7,13,15.2,13.8,14.5,14.5z"/>
		<path class="st0" d="M10.2,6.1c0.4,0,0.7,0.1,0.7,0.1l0.2-1.3c0,0-0.5-0.2-1.6-0.2c-0.7,0-1.1,0.3-1.4,0.7c-0.3,0.4-0.3,1-0.3,1.4
			v0.9H6.9v1.3h0.9v4.5h1.7V8.9h1.3l0.1-1.3H9.5v-1C9.5,6.2,9.8,6.1,10.2,6.1z"/>
	</g>
</g>
</svg>
