<?xml version="1.0" encoding="utf-8"?>
<!-- Generator: Adobe Illustrator 24.1.0, SVG Export Plug-In . SVG Version: 6.00 Build 0)  -->
<svg version="1.1" id="Layer_1" xmlns="http://www.w3.org/2000/svg" xmlns:xlink="http://www.w3.org/1999/xlink" x="0px" y="0px"
	 viewBox="0 0 18 18" style="enable-background:new 0 0 18 18;" xml:space="preserve">
<style type="text/css">
	.st0{fill:#FFFFFF;stroke:#FFFFFF;stroke-width:3.417675e-02;stroke-miterlimit:6.25;}
	.st1{fill:#FFFFFF;}
</style>
<g id="SVGRepo_bgCarrier">
</g>
<g id="SVGRepo_tracerCarrier">
</g>
<g id="SVGRepo_iconCarrier">
	<g>
		<path class="st0" d="M9,0.3c-4.8,0-8.7,3.9-8.7,8.7s3.9,8.7,8.7,8.7s8.7-3.9,8.7-8.7S13.8,0.3,9,0.3z M14.5,14.5
			c-0.7,0.7-1.5,1.3-2.5,1.7c-1,0.4-2,0.6-3,0.6c-1,0-2.1-0.2-3-0.6c-0.9-0.4-1.7-0.9-2.5-1.7c-0.7-0.7-1.3-1.5-1.7-2.5
			c-0.4-1-0.6-2-0.6-3s0.2-2.1,0.6-3c0.4-0.9,0.9-1.7,1.7-2.5C4.2,2.9,5.1,2.3,6,1.9c1-0.4,2-0.6,3-0.6s2.1,0.2,3,0.6
			c0.9,0.4,1.7,0.9,2.5,1.7c0.7,0.7,1.3,1.5,1.7,2.5c0.4,1,0.6,2,0.6,3c0,1-0.2,2.1-0.6,3C15.7,13,15.2,13.8,14.5,14.5z"/>
	</g>
</g>
<g id="SVGRepo_iconCarrier_1_">
	<path class="st1" d="M11.8,6.7c0,0.2-0.2,0.4-0.4,0.4c-0.2,0-0.4-0.2-0.4-0.4c0-0.2,0.2-0.4,0.4-0.4C11.6,6.2,11.8,6.4,11.8,6.7z
		 M13.4,6.9v4.3c0,1.2-1,2.2-2.2,2.2H6.9c-1.2,0-2.2-1-2.2-2.2V6.9c0-1.2,1-2.2,2.2-2.2h4.3C12.4,4.6,13.4,5.6,13.4,6.9z M12.5,6.9
		c0-0.8-0.6-1.4-1.4-1.4H6.9c-0.8,0-1.4,0.6-1.4,1.4v4.3c0,0.8,0.6,1.4,1.4,1.4h4.3c0.8,0,1.4-0.6,1.4-1.4L12.5,6.9L12.5,6.9z
		 M11.3,9c0-1.3-1-2.3-2.3-2.3S6.7,7.7,6.7,9s1,2.3,2.3,2.3S11.3,10.3,11.3,9z M10.5,9c0,0.8-0.6,1.5-1.5,1.5S7.5,9.8,7.5,9
		S8.2,7.5,9,7.5S10.5,8.2,10.5,9L10.5,9z"/>
</g>
</svg>
