<?xml version="1.0" encoding="utf-8"?>
<!-- Generator: Adobe Illustrator 24.1.0, SVG Export Plug-In . SVG Version: 6.00 Build 0)  -->
<svg version="1.1" id="Layer_1" xmlns="http://www.w3.org/2000/svg" xmlns:xlink="http://www.w3.org/1999/xlink" x="0px" y="0px"
	 viewBox="0 0 18 18" style="enable-background:new 0 0 18 18;" xml:space="preserve">
<style type="text/css">
	.st0{fill:#FFFFFF;stroke:#FFFFFF;stroke-width:3.417675e-02;stroke-miterlimit:6.25;}
	.st1{fill:#FFFFFF;stroke:#FFFFFF;stroke-width:3.825262e-02;stroke-miterlimit:6.25;}
</style>
<g id="SVGRepo_bgCarrier">
</g>
<g id="SVGRepo_tracerCarrier">
</g>
<g id="SVGRepo_iconCarrier">
	<g>
		<path class="st0" d="M9,0.3c-4.8,0-8.7,3.9-8.7,8.7s3.9,8.7,8.7,8.7s8.7-3.9,8.7-8.7S13.8,0.3,9,0.3z M14.5,14.5
			c-0.7,0.7-1.5,1.3-2.5,1.7c-1,0.4-2,0.6-3,0.6c-1,0-2.1-0.2-3-0.6c-0.9-0.4-1.7-0.9-2.5-1.7c-0.7-0.7-1.3-1.5-1.7-2.5
			c-0.4-1-0.6-2-0.6-3s0.2-2.1,0.6-3c0.4-0.9,0.9-1.7,1.7-2.5C4.2,2.9,5.1,2.3,6,1.9c1-0.4,2-0.6,3-0.6s2.1,0.2,3,0.6
			c0.9,0.4,1.7,0.9,2.5,1.7c0.7,0.7,1.3,1.5,1.7,2.5c0.4,1,0.6,2,0.6,3c0,1-0.2,2.1-0.6,3C15.7,13,15.2,13.8,14.5,14.5z"/>
		<path class="st1" d="M14.1,5.6c-0.4,0.2-0.8,0.4-1.3,0.5c-0.4-0.4-0.9-0.6-1.5-0.6c-1.1,0-2,0.9-2,2c0,0.2,0,0.3,0.1,0.5
			C7.7,7.9,6.2,7.1,5.3,5.8C5.1,6.1,5,6.5,5,6.9c0,0.7,0.4,1.3,0.9,1.7C5.5,8.5,5.2,8.4,5,8.3v0c0,1,0.7,1.8,1.6,2
			c-0.2,0-0.3,0.1-0.5,0.1c-0.1,0-0.3,0-0.4,0c0.3,0.8,1,1.4,1.9,1.4C6.9,12.3,6,12.6,5,12.6c-0.2,0-0.3,0-0.5,0
			c0.9,0.6,1.9,0.9,3.1,0.9c3.7,0,5.7-3.1,5.7-5.7c0-0.1,0-0.2,0-0.3c0.4-0.3,0.7-0.6,1-1c-0.4,0.2-0.7,0.3-1.2,0.3
			C13.6,6.5,14,6.1,14.1,5.6z"/>
	</g>
</g>
</svg>
